<svg id="Layer_1" data-name="Layer 1" xmlns="http://www.w3.org/2000/svg" viewBox="0 0 280.9 64.96"><defs><style>.cls-1{fill:#3393c1;stroke:#3193c1;stroke-miterlimit:10;stroke-width:2px;}</style></defs><title>logo-infisysFinalv2</title><path class="cls-1" d="M62.69,26.78V64H57V26.67C57,16,57.11,6.91,37.45,6.91S18.36,16,18.36,27.23V64H12.78V27.23c0-15,1-25.57,24.67-25.57S62.69,12.27,62.69,26.78" transform="translate(-0.02 0)"/><rect class="cls-1" x="118.77" y="2.1" width="5.47" height="61.86"/><rect class="cls-1" x="1" y="1.11" width="5.47" height="62.85"/><path class="cls-1" d="M109.7,3.73v2.6a.87.87,0,0,1-.87.87H83.24a8.3,8.3,0,0,0-8.3,8.3V32.4a2.85,2.85,0,0,1,2-.79h31v2.61a1,1,0,0,1-.94,1H74.94v27a.87.87,0,0,1-.86.87H70.84V16.13a12.42,12.42,0,0,1,12.4-12.4Z" transform="translate(-0.02 0)"/><path class="cls-1" d="M226.63,1.84V53c0,5.88-5.85,10.59-13.18,10.59H186.87V60.94a1,1,0,0,1,1.06-.92h25.52c4.68,0,8.39-2.94,8.39-6.64V41.78A3.15,3.15,0,0,1,219,43L198.14,43c-8.93,0-13.07-4.79-13.07-10.6V1h3.61c.64,0,1.17.34,1.17.84V32.53c0,3.7,2,7,8.29,7h21.79A1.74,1.74,0,0,0,221.84,38V1h3.62C226.1,1,226.63,1.34,226.63,1.84Z" transform="translate(-0.02 0)"/><path class="cls-1" d="M137.41,21.45v-7A8.42,8.42,0,0,1,145.81,6h28a.89.89,0,0,0,.88-.88V2.55H145.81a12.55,12.55,0,0,0-12.56,12.61v6.29Z" transform="translate(-0.02 0)"/><path class="cls-1" d="M145.85,34.47h13.09V31H145.85a8.42,8.42,0,0,1-8.41-8.43V14.23h-4.16v7.64A12.6,12.6,0,0,0,145.85,34.47Z" transform="translate(-0.02 0)"/><path class="cls-1" d="M172.17,47v4.09a8.43,8.43,0,0,1-8.41,8.43H133.28a.89.89,0,0,0-.88.88V63h31.36a12.61,12.61,0,0,0,12.57-12.61V47Z" transform="translate(-0.02 0)"/><path class="cls-1" d="M172.18,42.88v7.23h4.16V43.6A12.6,12.6,0,0,0,163.78,31h-13.1v3.46h13.1A8.41,8.41,0,0,1,172.18,42.88Z" transform="translate(-0.02 0)"/><path class="cls-1" d="M241,21.53v-7a8.41,8.41,0,0,1,8.4-8.43h28a.89.89,0,0,0,.88-.88V2.64H249.39a12.55,12.55,0,0,0-12.56,12.6v6.29Z" transform="translate(-0.02 0)"/><path class="cls-1" d="M249.43,34.55h13.09V31.1H249.43a8.41,8.41,0,0,1-8.4-8.43V14.32h-4.16V22A12.6,12.6,0,0,0,249.43,34.55Z" transform="translate(-0.02 0)"/><path class="cls-1" d="M275.75,47.08v4.09a8.41,8.41,0,0,1-8.4,8.43H236.87a.89.89,0,0,0-.88.88v2.57h31.36a12.6,12.6,0,0,0,12.56-12.6V47.08Z" transform="translate(-0.02 0)"/><path class="cls-1" d="M275.76,43v7.23h4.16V43.68a12.6,12.6,0,0,0-12.56-12.6h-13.1v3.45h13.1A8.41,8.41,0,0,1,275.76,43Z" transform="translate(-0.02 0)"/></svg>