<svg id="Layer_1" data-name="Layer 1" xmlns="http://www.w3.org/2000/svg" viewBox="0 0 280.08 63.75"><defs><style>.cls-1,.cls-2,.cls-3{fill:#fff;}.cls-2,.cls-3{stroke:#fff;stroke-miterlimit:10;}.cls-2{stroke-width:2px;}</style></defs><title>infisys</title><path class="cls-1" d="M61.67,26.57V63.75H56V26.46c0-10.72.11-19.77-19.54-19.77S17.34,15.74,17.34,27V63.75H11.76V27c0-15,1-25.57,24.68-25.57s25.23,10.6,25.23,25.12"/><rect class="cls-1" x="117.77" y="1.89" width="5.47" height="61.86"/><rect class="cls-1" y="0.9" width="5.47" height="62.85"/><path class="cls-2" d="M108.68,3.51V6.12a.88.88,0,0,1-.86.87H82.22a8.29,8.29,0,0,0-8.29,8.29V32.19a2.76,2.76,0,0,1,2-.79H107V34a1,1,0,0,1-1,1H73.93V62a.88.88,0,0,1-.87.87H69.82V15.91a12.42,12.42,0,0,1,12.4-12.4Z"/><path class="cls-3" d="M225.61,1.63V52.74c0,5.89-5.85,10.6-13.18,10.6H185.85V60.73a1,1,0,0,1,1.07-.92h25.51c4.68,0,8.39-3,8.39-6.65V41.56A3.13,3.13,0,0,1,218,42.74l-20.84.08c-8.93,0-13.07-4.79-13.07-10.59V.79h3.61c.64,0,1.17.34,1.17.84V32.31c0,3.7,2,7,8.29,7h21.79a1.73,1.73,0,0,0,1.91-1.51V.79h3.62C225.08.79,225.61,1.13,225.61,1.63Z"/><path class="cls-2" d="M136.39,21.24v-7a8.41,8.41,0,0,1,8.4-8.43h28a.89.89,0,0,0,.88-.88V2.34H144.79a12.55,12.55,0,0,0-12.56,12.6v6.3Z"/><path class="cls-2" d="M144.83,34.25h13.09V30.8H144.83a8.41,8.41,0,0,1-8.4-8.43V14h-4.16v7.63A12.6,12.6,0,0,0,144.83,34.25Z"/><path class="cls-2" d="M171.15,46.78v4.09a8.41,8.41,0,0,1-8.4,8.43H132.27a.89.89,0,0,0-.88.88v2.57h31.36a12.6,12.6,0,0,0,12.56-12.6V46.78Z"/><path class="cls-2" d="M171.16,42.66V49.9h4.16V43.38a12.6,12.6,0,0,0-12.56-12.6h-13.1v3.45h13.1A8.41,8.41,0,0,1,171.16,42.66Z"/><path class="cls-2" d="M240,21.32v-7a8.42,8.42,0,0,1,8.4-8.43h28a.89.89,0,0,0,.88-.88V2.42H248.37A12.55,12.55,0,0,0,235.81,15v6.3Z"/><path class="cls-2" d="M248.41,34.34h13.1V30.89h-13.1a8.42,8.42,0,0,1-8.4-8.43V14.1h-4.16v7.63A12.6,12.6,0,0,0,248.41,34.34Z"/><path class="cls-2" d="M274.73,46.87V51a8.41,8.41,0,0,1-8.4,8.42H235.85a.9.9,0,0,0-.88.89v2.57h31.36a12.6,12.6,0,0,0,12.56-12.61V46.87Z"/><path class="cls-2" d="M274.74,42.74V50h4.16V43.47a12.6,12.6,0,0,0-12.56-12.61h-13.1v3.46h13.1A8.41,8.41,0,0,1,274.74,42.74Z"/></svg>