<svg width="36" height="36" viewBox="0 0 36 36" fill="none" xmlns="http://www.w3.org/2000/svg">
<g clip-path="url(#clip0_4884_123347)">
<path d="M34.0915 36.0879H33.1519V29.9883H34.0915V36.0879Z" fill="white"/>
<path d="M31.814 36.0879H30.8743V29.9883H31.814V36.0879Z" fill="white"/>
<path d="M27.8719 31.666C28.4293 31.666 28.8501 31.7875 29.1341 32.0306C29.4208 32.2736 29.5641 32.6526 29.5641 33.1674V36.0878H28.8992L28.72 35.4724H28.6882C28.5634 35.6292 28.4347 35.7586 28.3019 35.8605C28.1692 35.9624 28.0152 36.0382 27.84 36.0878C27.6675 36.1401 27.4565 36.1662 27.207 36.1662C26.9442 36.1662 26.7092 36.1192 26.5022 36.0251C26.2951 35.9284 26.1319 35.7821 26.0124 35.5861C25.893 35.3901 25.8333 35.1418 25.8333 34.8413C25.8333 34.3944 26.0018 34.0586 26.3389 33.8338C26.6787 33.6091 27.191 33.4849 27.8759 33.4614L28.6404 33.434V33.2066C28.6404 32.9061 28.5687 32.6918 28.4254 32.5637C28.2847 32.4357 28.0856 32.3716 27.8281 32.3716C27.6078 32.3716 27.3941 32.403 27.187 32.4657C26.98 32.5284 26.7783 32.6055 26.5818 32.697L26.2792 32.0463C26.4942 31.9339 26.7384 31.8424 27.0118 31.7719C27.2879 31.7013 27.5746 31.666 27.8719 31.666ZM28.6364 34.0141L28.067 34.0337C27.5998 34.0494 27.272 34.1278 27.0835 34.2689C26.895 34.4101 26.8008 34.6034 26.8008 34.8491C26.8008 35.0634 26.8658 35.2202 26.9959 35.3195C27.126 35.4162 27.2972 35.4646 27.5096 35.4646C27.8334 35.4646 28.1015 35.3744 28.3139 35.1941C28.5289 35.0111 28.6364 34.7433 28.6364 34.3905V34.0141Z" fill="white"/>
<path d="M23.5518 31.0741C23.2731 31.0741 23.0236 31.1238 22.8033 31.2231C22.5856 31.3224 22.4011 31.4661 22.2498 31.6543C22.0985 31.8398 21.983 32.0659 21.9034 32.3324C21.8238 32.5964 21.7839 32.8943 21.7839 33.2262C21.7839 33.6705 21.8476 34.0534 21.9751 34.3748C22.1025 34.6936 22.2962 34.9393 22.5564 35.1118C22.8165 35.2816 23.1457 35.3666 23.5439 35.3666C23.7907 35.3666 24.031 35.3431 24.2646 35.296C24.4981 35.249 24.7397 35.1849 24.9892 35.1039V35.9036C24.753 35.9951 24.5141 36.0617 24.2725 36.1035C24.031 36.1454 23.7522 36.1663 23.4364 36.1663C22.8417 36.1663 22.348 36.0447 21.9551 35.8017C21.5649 35.5587 21.2729 35.2163 21.0792 34.7746C20.888 34.333 20.7925 33.8155 20.7925 33.2223C20.7925 32.7885 20.8535 32.3912 20.9756 32.0306C21.0977 31.67 21.2756 31.359 21.5092 31.0976C21.7428 30.8337 22.0308 30.6311 22.3732 30.49C22.7183 30.3463 23.1125 30.2744 23.5558 30.2744C23.8478 30.2744 24.1345 30.3071 24.4159 30.3724C24.6999 30.4351 24.9627 30.5253 25.2042 30.6429L24.8698 31.4191C24.668 31.325 24.457 31.244 24.2367 31.176C24.0164 31.1081 23.7881 31.0741 23.5518 31.0741Z" fill="white"/>
<path d="M19.9007 33.9083C19.9007 34.2689 19.8529 34.5891 19.7573 34.8687C19.6618 35.1483 19.5224 35.3848 19.3392 35.5782C19.1561 35.769 18.9358 35.9154 18.6783 36.0173C18.4208 36.1166 18.1301 36.1662 17.8063 36.1662C17.5037 36.1662 17.2263 36.1166 16.9741 36.0173C16.7219 35.9154 16.5029 35.769 16.3171 35.5782C16.1339 35.3848 15.9919 35.1483 15.8911 34.8687C15.7902 34.5891 15.7397 34.2689 15.7397 33.9083C15.7397 33.43 15.8234 33.025 15.9906 32.6931C16.1605 32.3586 16.402 32.1038 16.7153 31.9287C17.0285 31.7536 17.4015 31.666 17.8341 31.666C18.2403 31.666 18.5986 31.7536 18.9092 31.9287C19.2198 32.1038 19.4627 32.3586 19.6379 32.6931C19.8131 33.0276 19.9007 33.4327 19.9007 33.9083ZM16.7033 33.9083C16.7033 34.2245 16.7418 34.495 16.8188 34.7197C16.8984 34.9445 17.0205 35.117 17.1851 35.2372C17.3497 35.3548 17.5621 35.4136 17.8222 35.4136C18.0823 35.4136 18.2947 35.3548 18.4593 35.2372C18.6239 35.117 18.7446 34.9445 18.8216 34.7197C18.8986 34.495 18.9371 34.2245 18.9371 33.9083C18.9371 33.5921 18.8986 33.3242 18.8216 33.1047C18.7446 32.8825 18.6239 32.714 18.4593 32.599C18.2947 32.4814 18.081 32.4226 17.8182 32.4226C17.4307 32.4226 17.148 32.5506 16.9701 32.8068C16.7923 33.0629 16.7033 33.43 16.7033 33.9083Z" fill="white"/>
<path d="M14.4138 35.4216C14.5359 35.4216 14.6567 35.4112 14.7761 35.3902C14.8956 35.3667 15.0044 35.3393 15.1027 35.3079V36.0057C14.9991 36.0501 14.8651 36.088 14.7005 36.1194C14.5359 36.1507 14.3647 36.1664 14.1869 36.1664C13.9373 36.1664 13.713 36.1259 13.5139 36.0449C13.3149 35.9613 13.1569 35.8188 13.0401 35.6176C12.9233 35.4164 12.8649 35.1381 12.8649 34.7826V32.4502H12.2637V32.0386L12.9087 31.7132L13.2153 30.7842H13.8046V31.7485H15.0668V32.4502H13.8046V34.7709C13.8046 34.9904 13.8603 35.1537 13.9718 35.2609C14.0833 35.368 14.2306 35.4216 14.4138 35.4216Z" fill="white"/>
<path d="M11.4314 31.749V36.0885H10.6948L10.5674 35.5044H10.5156C10.4227 35.6534 10.3046 35.7775 10.1613 35.8768C10.0179 35.9735 9.85865 36.0454 9.68345 36.0924C9.50826 36.1421 9.32377 36.1669 9.12999 36.1669C8.79818 36.1669 8.51415 36.112 8.2779 36.0023C8.0443 35.8899 7.86513 35.7174 7.74036 35.4848C7.6156 35.2522 7.55322 34.9517 7.55322 34.5832V31.749H8.49291V34.4107C8.49291 34.7479 8.56193 35.0001 8.69996 35.1673C8.84065 35.3346 9.05832 35.4182 9.35297 35.4182C9.637 35.4182 9.86263 35.3607 10.0299 35.2457C10.1971 35.1307 10.3152 34.9609 10.3842 34.7361C10.4559 34.5114 10.4917 34.2356 10.4917 33.909V31.749H11.4314Z" fill="white"/>
<path d="M5.90076 36.0877L5.33137 34.4961H3.10558L2.53619 36.0877H1.52881L3.69487 30.333H4.75402L6.9161 36.0877H5.90076ZM5.0845 33.6886L4.53104 32.1206C4.5098 32.0526 4.47928 31.9572 4.43946 31.8344C4.39964 31.7089 4.35982 31.5822 4.32001 31.4541C4.28019 31.3235 4.24701 31.2137 4.22046 31.1249C4.19392 31.232 4.16074 31.3522 4.12092 31.4855C4.08376 31.6162 4.04659 31.739 4.00943 31.854C3.97492 31.969 3.94838 32.0578 3.9298 32.1206L3.37235 33.6886H5.0845Z" fill="white"/>
<path d="M16.6914 29.1377C16.7258 29.1377 16.773 29.144 16.8252 29.1465L16.6914 29.1377Z" fill="url(#paint0_linear_4884_123347)"/>
<path d="M32.3711 11.0261V11.0637C31.5713 7.90689 29.7232 5.10356 27.1204 3.09878C24.5176 1.094 21.3091 0.00267326 18.0043 -0.00193845C14.6996 -0.00655016 11.4879 1.07582 8.87934 3.07332C6.27074 5.07083 4.41465 7.869 3.60574 11.0236C2.644 11.0236 1.72165 11.3997 1.0416 12.0692C0.361542 12.7388 -0.0205078 13.6468 -0.0205078 14.5937C-0.0205078 15.5405 0.361542 16.4486 1.0416 17.1181C1.72165 17.7876 2.644 18.1637 3.60574 18.1637C4.35998 21.1039 6.02502 23.74 8.36984 25.7064C10.7147 27.6728 13.623 28.8719 16.6913 29.1374C16.8335 29.3403 17.0225 29.507 17.243 29.6239C17.4634 29.7408 17.7088 29.8045 17.9591 29.8098C18.2094 29.8151 18.4574 29.7618 18.6827 29.6542C18.908 29.5467 19.1041 29.3881 19.2549 29.1913C19.2806 29.1596 19.3044 29.1266 19.3263 29.0922C19.4909 28.8412 19.5785 28.5487 19.5785 28.2499C19.5785 27.9511 19.4909 27.6586 19.3263 27.4076V27.4013C18.8905 27.4013 17.1296 27.38 16.713 27.3398C14.2063 27.0989 11.8246 26.1466 9.85706 24.5986C7.88954 23.0506 6.42085 20.9735 5.62934 18.6195C4.83783 16.2656 4.75754 13.736 5.39822 11.3379C6.03891 8.93991 7.37301 6.7766 9.23852 5.11069C11.104 3.44478 13.4207 2.34795 15.9072 1.95337C18.3937 1.5588 20.9431 1.88346 23.2458 2.88793C25.5485 3.8924 27.5055 5.53347 28.8791 7.61187C30.2526 9.69027 30.9837 12.1166 30.9835 14.5962V18.1663H32.4042C32.5375 18.1649 32.6706 18.1565 32.803 18.1412C33.7219 18.0334 34.5641 17.5838 35.1572 16.8846C35.7504 16.1854 36.0496 15.2894 35.9936 14.38C35.9376 13.4707 35.5306 12.6169 34.8559 11.9933C34.1813 11.3698 33.29 11.0238 32.3647 11.0261H32.3711Z" fill="url(#paint1_linear_4884_123347)"/>
<path d="M17.9986 3.56934C15.04 3.60036 12.2133 4.77922 10.1323 6.84993C8.05127 8.92063 6.88403 11.716 6.88403 14.6289C6.88403 17.5419 8.05127 20.3372 10.1323 22.4079C12.2133 24.4786 15.04 25.6575 17.9986 25.6885H29.2329V14.6295C29.2325 11.6963 28.0488 8.88328 25.9421 6.80916C23.8353 4.73504 20.978 3.56967 17.9986 3.56934ZM26.6298 23.1282H17.9986C16.2909 23.1287 14.6213 22.6306 13.2012 21.6969C11.781 20.7631 10.674 19.4357 10.0202 17.8825C9.36639 16.3293 9.19512 14.6201 9.52807 12.9711C9.86102 11.3221 10.6832 9.80731 11.8907 8.61837C13.0982 7.42943 14.6366 6.61974 16.3116 6.29171C17.9865 5.96367 19.7226 6.13203 21.3003 6.77549C22.8781 7.41895 24.2265 8.5086 25.1752 9.90663C26.1238 11.3047 26.63 12.9483 26.6298 14.6295V23.1282Z" fill="url(#paint2_linear_4884_123347)"/>
<path d="M17.9986 3.56934C15.04 3.60036 12.2133 4.77922 10.1323 6.84993C8.05127 8.92063 6.88403 11.716 6.88403 14.6289C6.88403 17.5419 8.05127 20.3372 10.1323 22.4079C12.2133 24.4786 15.04 25.6575 17.9986 25.6885H19.0027C16.9793 25.6885 15.0014 25.0978 13.3191 23.9911C11.6367 22.8844 10.3255 21.3114 9.55119 19.4711C8.77689 17.6307 8.5743 15.6056 8.96903 13.6519C9.36377 11.6982 10.3381 9.90354 11.7688 8.49499C13.1995 7.08643 15.0224 6.12719 17.0068 5.73857C18.9913 5.34995 21.0483 5.54941 22.9176 6.31171C24.7869 7.07402 26.3846 8.36494 27.5088 10.0212C28.6329 11.6775 29.2329 13.6248 29.2329 15.6168V14.6295C29.2325 11.6963 28.0488 8.88328 25.9421 6.80916C23.8353 4.73504 20.978 3.56967 17.9986 3.56934Z" fill="url(#paint3_linear_4884_123347)"/>
<path d="M17.9986 3.56934C17.8304 3.56934 17.6635 3.57561 17.4978 3.58188C20.1208 3.70906 22.5937 4.82432 24.4045 6.69681C26.2154 8.56929 27.2256 11.0556 27.226 13.6411V23.7078H16.9958C14.3704 23.7077 11.8455 22.714 9.94366 20.9322C8.04178 19.1503 6.90851 16.7169 6.77837 14.1353C6.77072 14.2996 6.76562 14.464 6.76562 14.6295C6.76563 17.5626 7.94909 20.3755 10.0557 22.4494C12.1623 24.5234 15.0194 25.6885 17.9986 25.6885H29.2328V14.6295C29.2325 11.6963 28.0488 8.88328 25.942 6.80916C23.8353 4.73504 20.978 3.56967 17.9986 3.56934Z" fill="url(#paint4_linear_4884_123347)"/>
<path d="M17.9987 16.3008C18.936 16.3008 19.6959 15.5527 19.6959 14.6299C19.6959 13.7071 18.936 12.959 17.9987 12.959C17.0614 12.959 16.3015 13.7071 16.3015 14.6299C16.3015 15.5527 17.0614 16.3008 17.9987 16.3008Z" fill="url(#paint5_linear_4884_123347)"/>
<path d="M13.5468 16.3008C14.4841 16.3008 15.244 15.5527 15.244 14.6299C15.244 13.7071 14.4841 12.959 13.5468 12.959C12.6095 12.959 11.8496 13.7071 11.8496 14.6299C11.8496 15.5527 12.6095 16.3008 13.5468 16.3008Z" fill="url(#paint6_linear_4884_123347)"/>
<path d="M22.4506 16.3008C23.3879 16.3008 24.1478 15.5527 24.1478 14.6299C24.1478 13.7071 23.3879 12.959 22.4506 12.959C21.5133 12.959 20.7534 13.7071 20.7534 14.6299C20.7534 15.5527 21.5133 16.3008 22.4506 16.3008Z" fill="url(#paint7_linear_4884_123347)"/>
</g>
<defs>
<linearGradient id="paint0_linear_4884_123347" x1="16.6965" y1="29.1427" x2="16.8303" y2="29.1427" gradientUnits="userSpaceOnUse">
<stop stop-color="#27AAE1"/>
<stop offset="1" stop-color="#0058A9"/>
</linearGradient>
<linearGradient id="paint1_linear_4884_123347" x1="-0.000121319" y1="14.9048" x2="35.9986" y2="14.9048" gradientUnits="userSpaceOnUse">
<stop stop-color="#27AAE1"/>
<stop offset="1" stop-color="#0058A9"/>
</linearGradient>
<linearGradient id="paint2_linear_4884_123347" x1="6.95169" y1="2.82797" x2="24.662" y2="22.3463" gradientUnits="userSpaceOnUse">
<stop stop-color="#006838"/>
<stop offset="1" stop-color="#16B14B"/>
</linearGradient>
<linearGradient id="paint3_linear_4884_123347" x1="9.97909" y1="7.79171" x2="25.9879" y2="21.8741" gradientUnits="userSpaceOnUse">
<stop stop-color="#16B14B"/>
<stop offset="1" stop-color="#006838"/>
</linearGradient>
<linearGradient id="paint4_linear_4884_123347" x1="9.36618" y1="9.72226" x2="31.1156" y2="22.4765" gradientUnits="userSpaceOnUse">
<stop stop-color="#006838"/>
<stop offset="1" stop-color="#16B14B"/>
</linearGradient>
<linearGradient id="paint5_linear_4884_123347" x1="17.9987" y1="16.3008" x2="17.9987" y2="12.959" gradientUnits="userSpaceOnUse">
<stop stop-color="#CD4D22"/>
<stop offset="1" stop-color="#F27227"/>
</linearGradient>
<linearGradient id="paint6_linear_4884_123347" x1="13.5468" y1="16.3008" x2="13.5468" y2="12.959" gradientUnits="userSpaceOnUse">
<stop stop-color="#CD4D22"/>
<stop offset="1" stop-color="#F27227"/>
</linearGradient>
<linearGradient id="paint7_linear_4884_123347" x1="22.4506" y1="16.3008" x2="22.4506" y2="12.959" gradientUnits="userSpaceOnUse">
<stop stop-color="#CD4D22"/>
<stop offset="1" stop-color="#F27227"/>
</linearGradient>
<clipPath id="clip0_4884_123347">
<rect width="36" height="36" fill="white"/>
</clipPath>
</defs>
</svg>
